<svg xmlns="http://www.w3.org/2000/svg" viewBox="0 0 800 600" width="800" height="600">
  <defs>
    <!-- 全息渐变 -->
    <linearGradient id="holoGradient" x1="0%" y1="0%" x2="100%" y2="100%">
      <stop offset="0%" style="stop-color:#00f0ff;stop-opacity:0.3" />
      <stop offset="50%" style="stop-color:#9d00ff;stop-opacity:0.3" />
      <stop offset="100%" style="stop-color:#ff0080;stop-opacity:0.3" />
    </linearGradient>

    <!-- 扫描线图案 -->
    <pattern id="holoScanlines" patternUnits="userSpaceOnUse" width="4" height="4">
      <line x1="0" y1="2" x2="4" y2="2" stroke="#00f0ff" stroke-width="0.5" opacity="0.2"/>
    </pattern>

    <!-- 网格图案 -->
    <pattern id="holoGrid" patternUnits="userSpaceOnUse" width="40" height="40">
      <path d="M 40 0 L 0 0 0 40" fill="none" stroke="#00f0ff" stroke-width="0.5" opacity="0.15"/>
    </pattern>

    <!-- 发光滤镜 -->
    <filter id="holoGlow" x="-50%" y="-50%" width="200%" height="200%">
      <feGaussianBlur stdDeviation="4" result="coloredBlur"/>
      <feMerge>
        <feMergeNode in="coloredBlur"/>
        <feMergeNode in="SourceGraphic"/>
      </feMerge>
    </filter>

    <!-- 故障滤镜 -->
    <filter id="holoGlitch">
      <feOffset in="SourceGraphic" dx="2" dy="0" result="offset1"/>
      <feOffset in="SourceGraphic" dx="-2" dy="0" result="offset2"/>
      <feColorMatrix in="offset1" mode="matrix" values="1 0 0 0 0  0 1 0 0 0  0 0 1 0 0  0 0 0 0.5 0" result="colored1"/>
      <feColorMatrix in="offset2" mode="matrix" values="1 0 0 0 0  0 1 0 0 0  0 0 1 0 0  0 0 0 0.5 0" result="colored2"/>
      <feBlend in="colored1" in2="colored2" mode="screen" result="blend"/>
      <feMerge>
        <feMergeNode in="blend"/>
        <feMergeNode in="SourceGraphic"/>
      </feMerge>
    </filter>
  </defs>

  <!-- 背景 -->
  <rect width="800" height="600" fill="#0a0a0f"/>
  <rect width="800" height="600" fill="url(#holoGrid)"/>
  <rect width="800" height="600" fill="url(#holoScanlines)"/>

  <!-- 全息六边形 -->
  <g filter="url(#holoGlow)" opacity="0.6">
    <!-- 主六边形 -->
    <polygon points="400,100 600,200 600,400 400,500 200,400 200,200"
             fill="url(#holoGradient)"
             stroke="#00f0ff"
             stroke-width="2"/>

    <!-- 内部六边形 -->
    <polygon points="400,150 550,225 550,375 400,450 250,375 250,225"
             fill="none"
             stroke="#9d00ff"
             stroke-width="1.5"
             opacity="0.7"/>

    <!-- 中心圆 -->
    <circle cx="400" cy="300" r="60"
            fill="none"
            stroke="#ff0080"
            stroke-width="2"
            opacity="0.8"/>
  </g>

  <!-- 全息线条 -->
  <g stroke="#00f0ff" stroke-width="1" opacity="0.4">
    <line x1="400" y1="100" x2="400" y2="500"/>
    <line x1="200" y1="200" x2="600" y2="400"/>
    <line x1="600" y1="200" x2="200" y2="400"/>
    <line x1="400" y1="200" x2="600" y2="200"/>
    <line x1="200" y1="200" x2="400" y2="200"/>
    <line x1="400" y1="400" x2="600" y2="400"/>
    <line x1="200" y1="400" x2="400" y2="400"/>
  </g>

  <!-- 数据点 -->
  <g filter="url(#holoGlow)">
    <circle cx="400" cy="100" r="4" fill="#00f0ff"/>
    <circle cx="600" cy="200" r="4" fill="#9d00ff"/>
    <circle cx="600" cy="400" r="4" fill="#ff0080"/>
    <circle cx="400" cy="500" r="4" fill="#00f0ff"/>
    <circle cx="200" cy="400" r="4" fill="#9d00ff"/>
    <circle cx="200" cy="200" r="4" fill="#ff0080"/>
  </g>

  <!-- 全息文本效果 -->
  <g filter="url(#holoGlitch)" opacity="0.8">
    <text x="400" y="320"
          font-family="Orbitron, Arial, sans-serif"
          font-size="48"
          font-weight="bold"
          fill="#00f0ff"
          text-anchor="middle"
          letter-spacing="8">HOLOGRAPHIC</text>
  </g>

  <!-- 扫描动画线 -->
  <rect x="200" y="100" width="400" height="2" fill="#00f0ff" opacity="0.5">
    <animate attributeName="y" values="100;500;100" dur="4s" repeatCount="indefinite"/>
    <animate attributeName="opacity" values="0.5;0.8;0.5" dur="4s" repeatCount="indefinite"/>
  </rect>

  <!-- 粒子效果 -->
  <g opacity="0.6">
    <circle cx="350" cy="250" r="2" fill="#00f0ff">
      <animate attributeName="cy" values="250;240;250" dur="3s" repeatCount="indefinite"/>
      <animate attributeName="opacity" values="0.6;1;0.6" dur="3s" repeatCount="indefinite"/>
    </circle>
    <circle cx="450" cy="280" r="2" fill="#9d00ff">
      <animate attributeName="cy" values="280;270;280" dur="2.5s" repeatCount="indefinite"/>
      <animate attributeName="opacity" values="0.6;1;0.6" dur="2.5s" repeatCount="indefinite"/>
    </circle>
    <circle cx="380" cy="350" r="2" fill="#ff0080">
      <animate attributeName="cy" values="350;340;350" dur="3.5s" repeatCount="indefinite"/>
      <animate attributeName="opacity" values="0.6;1;0.6" dur="3.5s" repeatCount="indefinite"/>
    </circle>
    <circle cx="420" cy="320" r="2" fill="#00f0ff">
      <animate attributeName="cy" values="320;310;320" dur="2.8s" repeatCount="indefinite"/>
      <animate attributeName="opacity" values="0.6;1;0.6" dur="2.8s" repeatCount="indefinite"/>
    </circle>
  </g>

  <!-- 角落装饰 -->
  <g stroke="#00f0ff" stroke-width="2" fill="none" opacity="0.5">
    <path d="M 50 80 L 50 50 L 80 50"/>
    <path d="M 720 50 L 750 50 L 750 80"/>
    <path d="M 50 520 L 50 550 L 80 550"/>
    <path d="M 720 550 L 750 550 L 750 520"/>
  </g>
</svg>