<svg xmlns="http://www.w3.org/2000/svg" width="1920" height="1080" viewBox="0 0 1920 1080" preserveAspectRatio="xMidYMid slice">
  <defs>
    <!-- Gradients -->
    <radialGradient id="hero-glow-1" cx="50%" cy="50%" r="50%">
      <stop offset="0%" stop-color="#00f0ff" stop-opacity="0.15"/>
      <stop offset="100%" stop-color="#00f0ff" stop-opacity="0"/>
    </radialGradient>
    <radialGradient id="hero-glow-2" cx="50%" cy="50%" r="50%">
      <stop offset="0%" stop-color="#9d00ff" stop-opacity="0.1"/>
      <stop offset="100%" stop-color="#9d00ff" stop-opacity="0"/>
    </radialGradient>
    <radialGradient id="hero-glow-3" cx="50%" cy="50%" r="50%">
      <stop offset="0%" stop-color="#ff0080" stop-opacity="0.08"/>
      <stop offset="100%" stop-color="#ff0080" stop-opacity="0"/>
    </radialGradient>

    <!-- Grid pattern -->
    <pattern id="hero-grid" x="0" y="0" width="100" height="100" patternUnits="userSpaceOnUse">
      <path d="M 50 0 L 50 100 M 0 50 L 100 50" stroke="#00f0ff" stroke-width="0.5" opacity="0.05"/>
      <circle cx="50" cy="50" r="1.5" fill="#00f0ff" opacity="0.1"/>
    </pattern>
  </defs>

  <!-- Background -->
  <rect width="1920" height="1080" fill="#0a0a0f"/>

  <!-- Grid overlay -->
  <rect width="1920" height="1080" fill="url(#hero-grid)"/>

  <!-- Glowing orbs -->
  <circle cx="200" cy="200" r="400" fill="url(#hero-glow-1)">
    <animate attributeName="opacity" values="0.8;1;0.8" dur="4s" repeatCount="indefinite"/>
  </circle>
  <circle cx="1720" cy="880" r="500" fill="url(#hero-glow-2)">
    <animate attributeName="opacity" values="1;0.8;1" dur="5s" repeatCount="indefinite"/>
  </circle>
  <circle cx="960" cy="540" r="600" fill="url(#hero-glow-3)">
    <animate attributeName="opacity" values="0.6;0.9;0.6" dur="6s" repeatCount="indefinite"/>
  </circle>

  <!-- Circuit lines -->
  <g opacity="0.15">
    <!-- Left circuit -->
    <path d="M 0 300 L 300 300 L 350 250 L 450 250 L 500 300" stroke="#00f0ff" stroke-width="2" fill="none"/>
    <circle cx="300" cy="300" r="5" fill="#00f0ff"/>
    <circle cx="450" cy="250" r="5" fill="#00f0ff"/>

    <!-- Right circuit -->
    <path d="M 1920 780 L 1620 780 L 1570 830 L 1470 830 L 1420 780" stroke="#9d00ff" stroke-width="2" fill="none"/>
    <circle cx="1620" cy="780" r="5" fill="#9d00ff"/>
    <circle cx="1470" cy="830" r="5" fill="#9d00ff"/>

    <!-- Top circuit -->
    <path d="M 960 0 L 960 200" stroke="#ff0080" stroke-width="2" fill="none"/>
    <circle cx="960" cy="200" r="5" fill="#ff0080"/>

    <!-- Bottom circuit -->
    <path d="M 960 1080 L 960 880" stroke="#f0ff00" stroke-width="2" fill="none"/>
    <circle cx="960" cy="880" r="5" fill="#f0ff00"/>
  </g>

  <!-- Floating particles -->
  <g opacity="0.3">
    <circle cx="100" cy="100" r="2" fill="#00f0ff">
      <animate attributeName="cy" values="100;120;100" dur="3s" repeatCount="indefinite"/>
    </circle>
    <circle cx="1820" cy="980" r="2" fill="#9d00ff">
      <animate attributeName="cy" values="980;960;980" dur="4s" repeatCount="indefinite"/>
    </circle>
    <circle cx="960" cy="540" r="3" fill="#ff0080">
      <animate attributeName="r" values="3;4;3" dur="2s" repeatCount="indefinite"/>
    </circle>
    <circle cx="500" cy="700" r="2" fill="#f0ff00">
      <animate attributeName="opacity" values="0.3;0.6;0.3" dur="2.5s" repeatCount="indefinite"/>
    </circle>
    <circle cx="1420" cy="380" r="2" fill="#00f0ff">
      <animate attributeName="opacity" values="0.3;0.6;0.3" dur="3.5s" repeatCount="indefinite"/>
    </circle>
  </g>

  <!-- Scanlines effect -->
  <rect width="1920" height="1080" fill="url(#data:image/svg+xml,%3Csvg xmlns='http://www.w3.org/2000/svg' width='4' height='4'%3E%3Crect width='4' height='2' fill='%23000' opacity='0.03'/%3E%3C/svg%3E)"/>

  <!-- Vignette -->
  <rect width="1920" height="1080" fill="none"/>
  <radialGradient id="vignette">
    <stop offset="70%" stop-color="#000" stop-opacity="0"/>
    <stop offset="100%" stop-color="#000" stop-opacity="0.5"/>
  </radialGradient>
  <rect width="1920" height="1080" fill="url(#vignette)"/>
</svg>
