<svg width="400" height="600" viewBox="0 0 400 600" fill="none" xmlns="http://www.w3.org/2000/svg">
  <defs>
    <linearGradient id="matrix-grad" x1="0%" y1="0%" x2="0%" y2="100%">
      <stop offset="0%" style="stop-color:#00f0ff;stop-opacity:1" />
      <stop offset="100%" style="stop-color:#00f0ff;stop-opacity:0" />
    </linearGradient>
  </defs>

  <!-- Matrix code columns -->
  <g font-family="monospace" font-size="14" fill="url(#matrix-grad)" opacity="0.7">
    <!-- Column 1 -->
    <text x="20" y="30">0</text>
    <text x="20" y="50">1</text>
    <text x="20" y="70">1</text>
    <text x="20" y="90">0</text>
    <text x="20" y="110">1</text>
    <text x="20" y="130">0</text>
    <text x="20" y="150">1</text>
    <text x="20" y="170">0</text>
    <text x="20" y="190">1</text>
    <text x="20" y="210">0</text>

    <!-- Column 2 -->
    <text x="50" y="40">1</text>
    <text x="50" y="60">0</text>
    <text x="50" y="80">1</text>
    <text x="50" y="100">1</text>
    <text x="50" y="120">0</text>
    <text x="50" y="140">1</text>
    <text x="50" y="160">0</text>
    <text x="50" y="180">1</text>
    <text x="50" y="200">0</text>
    <text x="50" y="220">1</text>

    <!-- Column 3 -->
    <text x="80" y="20">0</text>
    <text x="80" y="45">1</text>
    <text x="80" y="65">0</text>
    <text x="80" y="85">1</text>
    <text x="80" y="105">1</text>
    <text x="80" y="125">0</text>
    <text x="80" y="145">1</text>
    <text x="80" y="165">0</text>
    <text x="80" y="185">1</text>
    <text x="80" y="205">1</text>

    <!-- Column 4 -->
    <text x="110" y="35">1</text>
    <text x="110" y="55">0</text>
    <text x="110" y="75">1</text>
    <text x="110" y="95">0</text>
    <text x="110" y="115">1</text>
    <text x="110" y="135">1</text>
    <text x="110" y="155">0</text>
    <text x="110" y="175">1</text>
    <text x="110" y="195">0</text>
    <text x="110" y="215">1</text>

    <!-- Column 5 -->
    <text x="140" y="25">0</text>
    <text x="140" y="48">1</text>
    <text x="140" y="68">0</text>
    <text x="140" y="88">1</text>
    <text x="140" y="108">0</text>
    <text x="140" y="128">1</text>
    <text x="140" y="148">1</text>
    <text x="140" y="168">0</text>
    <text x="140" y="188">1</text>
    <text x="140" y="208">0</text>

    <!-- Column 6 -->
    <text x="170" y="32">1</text>
    <text x="170" y="52">0</text>
    <text x="170" y="72">1</text>
    <text x="170" y="92">1</text>
    <text x="170" y="112">0</text>
    <text x="170" y="132">1</text>
    <text x="170" y="152">0</text>
    <text x="170" y="172">1</text>
    <text x="170" y="192">0</text>
    <text x="170" y="212">1</text>

    <!-- Column 7 -->
    <text x="200" y="28">0</text>
    <text x="200" y="50">1</text>
    <text x="200" y="70">0</text>
    <text x="200" y="90">1</text>
    <text x="200" y="110">1</text>
    <text x="200" y="130">0</text>
    <text x="200" y="150">1</text>
    <text x="200" y="170">0</text>
    <text x="200" y="190">1</text>
    <text x="200" y="210">0</text>

    <!-- Column 8 -->
    <text x="230" y="38">1</text>
    <text x="230" y="58">0</text>
    <text x="230" y="78">1</text>
    <text x="230" y="98">0</text>
    <text x="230" y="118">1</text>
    <text x="230" y="138">1</text>
    <text x="230" y="158">0</text>
    <text x="230" y="178">1</text>
    <text x="230" y="198">0</text>
    <text x="230" y="218">1</text>

    <!-- Column 9 -->
    <text x="260" y="22">0</text>
    <text x="260" y="46">1</text>
    <text x="260" y="66">0</text>
    <text x="260" y="86">1</text>
    <text x="260" y="106">0</text>
    <text x="260" y="126">1</text>
    <text x="260" y="146">1</text>
    <text x="260" y="166">0</text>
    <text x="260" y="186">1</text>
    <text x="260" y="206">0</text>

    <!-- Column 10 -->
    <text x="290" y="34">1</text>
    <text x="290" y="54">0</text>
    <text x="290" y="74">1</text>
    <text x="290" y="94">1</text>
    <text x="290" y="114">0</text>
    <text x="290" y="134">1</text>
    <text x="290" y="154">0</text>
    <text x="290" y="174">1</text>
    <text x="290" y="194">0</text>
    <text x="290" y="214">1</text>

    <!-- Column 11 -->
    <text x="320" y="26">0</text>
    <text x="320" y="49">1</text>
    <text x="320" y="69">0</text>
    <text x="320" y="89">1</text>
    <text x="320" y="109">1</text>
    <text x="320" y="129">0</text>
    <text x="320" y="149">1</text>
    <text x="320" y="169">0</text>
    <text x="320" y="189">1</text>
    <text x="320" y="209">0</text>

    <!-- Column 12 -->
    <text x="350" y="36">1</text>
    <text x="350" y="56">0</text>
    <text x="350" y="76">1</text>
    <text x="350" y="96">0</text>
    <text x="350" y="116">1</text>
    <text x="350" y="136">1</text>
    <text x="350" y="156">0</text>
    <text x="350" y="176">1</text>
    <text x="350" y="196">0</text>
    <text x="350" y="216">1</text>
  </g>

  <!-- Falling animation -->
  <g>
    <rect x="0" y="0" width="400" height="600" fill="url(#matrix-grad)" opacity="0.1">
      <animate attributeName="y" from="-600" to="0" dur="10s" repeatCount="indefinite"/>
    </rect>
  </g>
</svg>