<svg xmlns="http://www.w3.org/2000/svg" viewBox="0 0 24 24" fill="none" stroke="currentColor" stroke-width="2" stroke-linecap="round" stroke-linejoin="round">
  <defs>
    <linearGradient id="cloudSyncGradient" x1="0%" y1="0%" x2="100%" y2="100%">
      <stop offset="0%" style="stop-color:#00f0ff"/>
      <stop offset="100%" style="stop-color:#9d00ff"/>
    </linearGradient>
  </defs>

  <!-- 云形状 -->
  <path d="M17.5 19c0-1.7-1.3-3-3-3c-.1 0-.3 0-.4.1c-.5-2.1-2.4-3.6-4.6-3.6c-2.6 0-4.7 2.1-4.7 4.7c0 .3 0 .6.1.9C2.3 17.7 1 19.2 1 21c0 2.2 1.8 4 4 4h8.5c2.5 0 4.5-2 4.5-4.5c0-1-.3-1.9-.9-2.7"
        stroke="url(#cloudSyncGradient)"/>

  <!-- 同步箭头 -->
  <path d="M12 15v3M12 18l-2-2M12 18l2-2" stroke="url(#cloudSyncGradient)"/>
  <path d="M16 9v3M16 12l-2-2M16 12l2-2" stroke="url(#cloudSyncGradient)"/>
</svg>
