<svg xmlns="http://www.w3.org/2000/svg" viewBox="0 0 24 24" fill="none" stroke="currentColor" stroke-width="2" stroke-linecap="round" stroke-linejoin="round">
  <defs>
    <linearGradient id="dbGradient" x1="0%" y1="0%" x2="100%" y2="100%">
      <stop offset="0%" style="stop-color:#9d00ff"/>
      <stop offset="100%" style="stop-color:#00f0ff"/>
    </linearGradient>
  </defs>

  <!-- 数据库1 -->
  <ellipse cx="6" cy="5" rx="4" ry="2" stroke="url(#dbGradient)" fill="none"/>
  <path d="M2 5v4c0 1.1 1.8 2 4 2s4-.9 4-2V5" stroke="url(#dbGradient)" fill="none"/>
  <path d="M2 9v3c0 1.1 1.8 2 4 2s4-.9 4-2V9" stroke="url(#dbGradient)" fill="none"/>

  <!-- 数据库2 -->
  <ellipse cx="18" cy="5" rx="4" ry="2" stroke="url(#dbGradient)" fill="none"/>
  <path d="M14 5v4c0 1.1 1.8 2 4 2s4-.9 4-2V5" stroke="url(#dbGradient)" fill="none"/>
  <path d="M14 9v3c0 1.1 1.8 2 4 2s4-.9 4-2V9" stroke="url(#dbGradient)" fill="none"/>

  <!-- 数据库3（底部） -->
  <ellipse cx="12" cy="17" rx="4" ry="2" stroke="url(#dbGradient)" fill="none"/>
  <path d="M8 17v3c0 1.1 1.8 2 4 2s4-.9 4-2v-3" stroke="url(#dbGradient)" fill="none"/>

  <!-- 连接线 -->
  <line x1="6" y1="14" x2="9" y2="16" stroke="url(#dbGradient)" stroke-width="1"/>
  <line x1="18" y1="14" x2="15" y2="16" stroke="url(#dbGradient)" stroke-width="1"/>
</svg>
