<svg width="24" height="24" viewBox="0 0 24 24" fill="none" xmlns="http://www.w3.org/2000/svg">
  <defs>
    <linearGradient id="cloudGrad" x1="0%" y1="0%" x2="100%" y2="100%">
      <stop offset="0%" style="stop-color:#00f0ff;stop-opacity:1" />
      <stop offset="100%" style="stop-color:#9d00ff;stop-opacity:1" />
    </linearGradient>
  </defs>
  <g>
    <!-- Cloud shape -->
    <path d="M6 18C3.8 18 2 16.2 2 14C2 11.8 3.8 10 6 10C6.3 7.2 8.7 5 11.5 5C14.5 5 17 7.2 17.2 10C19.3 10.3 21 12.1 21 14.5C21 16.4 19.4 18 17.5 18H6Z"
          stroke="url(#cloudGrad)" stroke-width="1.5" fill="none"/>
    <!-- Sync arrows -->
    <g stroke="#00ff88" stroke-width="1.5" fill="none">
      <path d="M9 14L7 16L9 18"/>
      <path d="M15 14L17 16L15 18"/>
      <path d="M13 12L11 20"/>
    </g>
  </g>
</svg>