<svg xmlns="http://www.w3.org/2000/svg" viewBox="0 0 24 24" fill="none" stroke="currentColor" stroke-width="2" stroke-linecap="round" stroke-linejoin="round">
  <defs>
    <linearGradient id="rocket-gradient" x1="0%" y1="100%" x2="0%" y2="0%">
      <stop offset="0%" style="stop-color:#00f0ff"/>
      <stop offset="100%" style="stop-color:#9d00ff"/>
    </linearGradient>
  </defs>
  <path d="M4.5 16.5c-1.5 1.26-2 5-2 5s3.74-.5 5-2c.71-.84.7-2.13-.09-2.91a2.18 2.18 0 0 0-2.91-.09z"
        fill="url(#rocket-gradient)" opacity="0.3"/>
  <path d="M12 15l-3-3a22 22 0 0 1 2-6.4c.6-1.2 2.3-1.2 2.9 0A22 22 0 0 1 15.8 12l-3.8 3z"
        stroke="url(#rocket-gradient)"/>
  <path d="M12 2v13" stroke="#00f0ff" stroke-width="1" opacity="0.6"/>
  <path d="M9 7l3-5 3 5" stroke="#9d00ff" stroke-width="1.5"/>
  <circle cx="12" cy="8" r="1.5" fill="#00f0ff">
    <animate attributeName="r" values="1.5;2;1.5" dur="1s" repeatCount="indefinite"/>
    <animate attributeName="opacity" values="1;0.5;1" dur="1s" repeatCount="indefinite"/>
  </circle>
</svg>
