<svg width="24" height="24" viewBox="0 0 24 24" fill="none" xmlns="http://www.w3.org/2000/svg">
  <defs>
    <filter id="stream-glow" x="-50%" y="-50%" width="200%" height="200%">
      <feGaussianBlur stdDeviation="1.5" result="coloredBlur"/>
      <feMerge>
        <feMergeNode in="coloredBlur"/>
        <feMergeNode in="SourceGraphic"/>
      </feMerge>
    </filter>
    <linearGradient id="stream-gradient" x1="0%" y1="0%" x2="0%" y2="100%">
      <stop offset="0%" style="stop-color:#00f0ff;stop-opacity:0" />
      <stop offset="50%" style="stop-color:#00f0ff;stop-opacity:1" />
      <stop offset="100%" style="stop-color:#00f0ff;stop-opacity:0" />
    </linearGradient>
  </defs>
  <g filter="url(#stream-glow)">
    <rect x="2" y="3" width="3" height="3" rx="1" fill="#00f0ff" fill-opacity="0.3"/>
    <rect x="10.5" y="3" width="3" height="3" rx="1" fill="#00f0ff" fill-opacity="0.5"/>
    <rect x="19" y="3" width="3" height="3" rx="1" fill="#00f0ff" fill-opacity="0.3"/>
    <rect x="2" y="10.5" width="3" height="3" rx="1" fill="#9d00ff" fill-opacity="0.5"/>
    <rect x="10.5" y="10.5" width="3" height="3" rx="1" fill="#9d00ff" fill-opacity="0.8"/>
    <rect x="19" y="10.5" width="3" height="3" rx="1" fill="#9d00ff" fill-opacity="0.5"/>
    <rect x="2" y="18" width="3" height="3" rx="1" fill="#ff0080" fill-opacity="0.3"/>
    <rect x="10.5" y="18" width="3" height="3" rx="1" fill="#ff0080" fill-opacity="0.5"/>
    <rect x="19" y="18" width="3" height="3" rx="1" fill="#ff0080" fill-opacity="0.3"/>
    <path d="M3.5 6v4.5" stroke="url(#stream-gradient)" stroke-width="1" stroke-linecap="round"/>
    <path d="M12 6v4.5" stroke="url(#stream-gradient)" stroke-width="1" stroke-linecap="round"/>
    <path d="M20.5 6v4.5" stroke="url(#stream-gradient)" stroke-width="1" stroke-linecap="round"/>
    <path d="M3.5 13.5v4.5" stroke="url(#stream-gradient)" stroke-width="1" stroke-linecap="round"/>
    <path d="M12 13.5v4.5" stroke="url(#stream-gradient)" stroke-width="1" stroke-linecap="round"/>
    <path d="M20.5 13.5v4.5" stroke="url(#stream-gradient)" stroke-width="1" stroke-linecap="round"/>
  </g>
</svg>