<svg xmlns="http://www.w3.org/2000/svg" viewBox="0 0 24 24" width="24" height="24" fill="currentColor" stroke="none">
  <defs>
    <filter id="neonGlow" x="-50%" y="-50%" width="200%" height="200%">
      <feGaussianBlur stdDeviation="1" result="coloredBlur"/>
      <feMerge>
        <feMergeNode in="coloredBlur"/>
        <feMergeNode in="SourceGraphic"/>
      </feMerge>
    </filter>
  </defs>
  <g filter="url(#neonGlow)">
    <path d="M15.852 8.981h-4.588V0h4.588c2.476 0 4.49 2.014 4.49 4.49s-2.014 4.491-4.49 4.491zM12.735 7.51h3.117c1.665 0 3.019-1.355 3.019-3.019s-1.355-3.019-3.019-3.019h-3.117V7.51zm0 1.471H8.147c-2.476 0-4.49-2.014-4.49-4.49S5.671 0 8.147 0h4.588v8.981zm-4.588-7.51c-1.665 0-3.019 1.355-3.019 3.019s1.354 3.02 3.019 3.02h3.117V1.471zm4.588 16.025h-4.588c-2.476 0-4.49-2.014-4.49-4.49s2.014-4.49 4.49-4.49h4.588v8.98zm-4.588-7.51c-1.665 0-3.019 1.355-3.019 3.019s1.354 3.02 3.019 3.02h3.117v-6.038h-3.117zm4.588-1.47H8.147c-2.476 0-4.49-2.014-4.49-4.49s2.014-4.49 4.49-4.49h4.588v8.98zm-4.588-7.51c-1.665 0-3.019 1.355-3.019 3.019s1.354 3.02 3.019 3.02h3.117V1.471h-3.117zM15.852 24c-2.476 0-4.49-2.014-4.49-4.49s2.014-4.49 4.49-4.49c2.476 0 4.49 2.014 4.49 4.49S18.328 24 15.852 24zm0-7.509c-1.665 0-3.019 1.355-3.019 3.019s1.355 3.019 3.019 3.019 3.019-1.355 3.019-3.019-1.354-3.019-3.019-3.019z"/>
  </g>
</svg>
