<svg xmlns="http://www.w3.org/2000/svg" viewBox="0 0 24 24" width="24" height="24" fill="none" stroke="currentColor" stroke-width="2" stroke-linecap="round" stroke-linejoin="round">
  <defs>
    <filter id="neon-glow-fingerprint" x="-50%" y="-50%" width="200%" height="200%">
      <feGaussianBlur in="SourceGraphic" stdDeviation="2" result="blur"/>
      <feMerge>
        <feMergeNode in="blur"/>
        <feMergeNode in="SourceGraphic"/>
      </feMerge>
    </filter>
  </defs>
  <g filter="url(#neon-glow-fingerprint)">
    <path d="M2 12C2 6.5 6.5 2 12 2a10 10 0 0 1 8 6" />
    <path d="M5 19.5C5.5 18 6 15 6 12a6 6 0 0 1 6-6 6 6 0 0 1 6 6c0 1.5-.5 3.5-1 5" />
    <path d="M8.5 20c1-2 2-4.5 2-7.5a2.5 2.5 0 0 1 5 0c0 3-1.5 6.5-3 8.5" />
    <path d="M12 22c2-1.5 4.5-4 5.5-8a8 8 0 0 0-1-7" />
  </g>
</svg>
