<svg width="24" height="24" viewBox="0 0 24 24" fill="none" xmlns="http://www.w3.org/2000/svg">
  <defs>
    <linearGradient id="printGrad" x1="0%" y1="0%" x2="100%" y2="100%">
      <stop offset="0%" style="stop-color:#00f0ff;stop-opacity:1" />
      <stop offset="100%" style="stop-color:#00ff88;stop-opacity:1" />
    </linearGradient>
  </defs>
  <g stroke="url(#printGrad)" stroke-width="1.5" fill="none">
    <!-- Fingerprint pattern -->
    <path d="M8 12C8 9 9.5 7 12 7C14.5 7 16 9 16 12"/>
    <path d="M9 12C9 10 10 8.5 12 8.5C14 8.5 15 10 15 12"/>
    <path d="M10 12C10 11 10.5 10 12 10C13.5 10 14 11 14 12"/>
    <path d="M8 12C8 15 9.5 17 12 17C14.5 17 16 15 16 12"/>
    <path d="M7 12C7 16 9 19 12 19C15 19 17 16 17 12"/>
  </g>
  <!-- Scanning line -->
  <line x1="5" y1="12" x2="19" y2="12" stroke="#00f0ff" stroke-width="0.5" opacity="0.5">
    <animate attributeName="y1" values="6;18;6" dur="2s" repeatCount="indefinite"/>
    <animate attributeName="y2" values="6;18;6" dur="2s" repeatCount="indefinite"/>
  </line>
</svg>