<svg xmlns="http://www.w3.org/2000/svg" viewBox="0 0 24 24" fill="none" stroke="currentColor" stroke-width="2" stroke-linecap="round" stroke-linejoin="round">
  <defs>
    <filter id="neonGlowPackage">
      <feGaussianBlur stdDeviation="1" result="coloredBlur"/>
      <feMerge>
        <feMergeNode in="coloredBlur"/>
        <feMergeNode in="SourceGraphic"/>
      </feMerge>
    </filter>
  </defs>
  <line x1="16.5" y1="9.4" x2="7.5" y2="4.21" stroke="#00f0ff" filter="url(#neonGlowPackage)"/>
  <path d="M21 16V8a2 2 0 0 0-1-1.73l-7-4a2 2 0 0 0-2 0l-7 4A2 2 0 0 0 3 8v8a2 2 0 0 0 1 1.73l7 4a2 2 0 0 0 2 0l7-4A2 2 0 0 0 21 16z" stroke="#9d00ff" filter="url(#neonGlowPackage)"/>
  <polyline points="3.27 6.96 12 12.01 20.73 6.96" stroke="#ff0080" filter="url(#neonGlowPackage)"/>
  <line x1="12" y1="22.08" x2="12" y2="12" stroke="#00f0ff" filter="url(#neonGlowPackage)"/>
</svg>
