<svg width="24" height="24" viewBox="0 0 24 24" fill="none" xmlns="http://www.w3.org/2000/svg">
  <defs>
    <filter id="puzzle-glow" x="-30%" y="-30%" width="160%" height="160%">
      <feGaussianBlur stdDeviation="1.2" result="blur"/>
      <feFlood flood-color="#f0ff00"/>
      <feComposite in2="blur" operator="in"/>
      <feMerge>
        <feMergeNode/>
        <feMergeNode in="SourceGraphic"/>
      </feMerge>
    </filter>
  </defs>
  <path
    d="M19.428 15.428a2 2 0 0 0-1.022-.547l-2.387-.477a6 6 0 0 1-3.86-5.29 2.001 2.001 0 0 0-1.615-1.504l-1.32-.263a2 2 0 0 1-1.502-1.651l-.267-1.336A2 2 0 0 0 5.28 2.152l-1.336.267a2 2 0 0 0-1.505 1.615l-.264 1.32a2 2 0 0 1-1.65 1.502l-1.337.267a2 2 0 0 0-1.503 1.614l-.267 1.336a2 2 0 0 0 1.615 1.505l1.32.264a2 2 0 0 1 1.502 1.65l.267 1.337a2 2 0 0 0 1.614 1.503l1.336.267a2 2 0 0 0 1.505-1.615l.264-1.32a2 2 0 0 1 1.65-1.502l1.337-.267a2 2 0 0 0 1.503-1.614l.267-1.336a2 2 0 0 0-1.615-1.505l-1.32-.264a2 2 0 0 1-1.502-1.65l-.267-1.337a2 2 0 0 0-1.614-1.503l-1.336-.267a2 2 0 0 0-1.505 1.615l-.264 1.32a2 2 0 0 1-1.65 1.502l-1.337.267a2 2 0 0 0-1.503 1.614l-.267 1.336a2 2 0 0 0 1.615 1.505z"
    stroke="currentColor"
    stroke-width="2"
    stroke-linecap="round"
    stroke-linejoin="round"
    filter="url(#puzzle-glow)"
  />
  <circle
    cx="12"
    cy="12"
    r="3"
    stroke="currentColor"
    stroke-width="2"
    filter="url(#puzzle-glow)"
  />
</svg>