<svg xmlns="http://www.w3.org/2000/svg" viewBox="0 0 24 24" width="24" height="24" fill="none" stroke="currentColor" stroke-width="2" stroke-linecap="round" stroke-linejoin="round">
  <defs>
    <filter id="neon-glow-rocket" x="-50%" y="-50%" width="200%" height="200%">
      <feGaussianBlur in="SourceGraphic" stdDeviation="2" result="blur"/>
      <feMerge>
        <feMergeNode in="blur"/>
        <feMergeNode in="SourceGraphic"/>
      </feMerge>
    </filter>
  </defs>
  <g filter="url(#neon-glow-rocket)">
    <path d="M4.5 16.5c-1.5 1.26-2 5-2 5s3.74-.5 5-2c.48-.56.93-1.23 1.35-2h-4.35z" />
    <path d="M12 15l-3-3a22 22 0 0 1 2-3.95A12.88 12.88 0 0 1 22 2c0 2.72-.78 7.5-6 11a22.35 22.35 0 0 1-4 2z" />
    <path d="M9 12H4s.55-3.03 2-4c1.62-1.1 3.5-1 3.5-1" />
    <path d="M12 15v5s3.03-.55 4-2c1.1-1.62 1-3.5 1-3.5" />
  </g>
</svg>
