<svg xmlns="http://www.w3.org/2000/svg" viewBox="0 0 200 200" width="200" height="200">
  <defs>
    <linearGradient id="binary-gradient" x1="0%" y1="0%" x2="0%" y2="100%">
      <stop offset="0%" style="stop-color:#00f0ff;stop-opacity:0" />
      <stop offset="50%" style="stop-color:#00f0ff;stop-opacity:1" />
      <stop offset="100%" style="stop-color:#00f0ff;stop-opacity:0" />
    </linearGradient>

    <filter id="matrix-glow">
      <feGaussianBlur stdDeviation="0.5" result="coloredBlur"/>
      <feMerge>
        <feMergeNode in="coloredBlur"/>
        <feMergeNode in="SourceGraphic"/>
      </feMerge>
    </filter>
  </defs>

  <!-- Background -->
  <rect width="200" height="200" fill="#0a0a0f"/>

  <!-- Binary Rain -->
  <g font-family="monospace" font-size="12" fill="url(#binary-gradient)" filter="url(#matrix-glow)">
    <!-- Column 1 -->
    <text x="10" y="20" opacity="0.8">1</text>
    <text x="10" y="35" opacity="0.6">0</text>
    <text x="10" y="50" opacity="0.4">1</text>
    <text x="10" y="65" opacity="0.9">1</text>
    <text x="10" y="80" opacity="0.7">0</text>
    <text x="10" y="95" opacity="0.5">1</text>
    <text x="10" y="110" opacity="0.3">0</text>
    <text x="10" y="125" opacity="0.8">1</text>
    <text x="10" y="140" opacity="0.6">0</text>
    <text x="10" y="155" opacity="0.4">1</text>
    <text x="10" y="170" opacity="0.9">1</text>
    <text x="10" y="185" opacity="0.7">0</text>

    <!-- Column 2 -->
    <text x="25" y="25" opacity="0.7">0</text>
    <text x="25" y="40" opacity="0.5">1</text>
    <text x="25" y="55" opacity="0.3">0</text>
    <text x="25" y="70" opacity="0.8">1</text>
    <text x="25" y="85" opacity="0.6">0</text>
    <text x="25" y="100" opacity="0.4">1</text>
    <text x="25" y="115" opacity="0.9">0</text>
    <text x="25" y="130" opacity="0.7">1</text>
    <text x="25" y="145" opacity="0.5">0</text>
    <text x="25" y="160" opacity="0.3">1</text>
    <text x="25" y="175" opacity="0.8">0</text>
    <text x="25" y="190" opacity="0.6">1</text>

    <!-- Column 3 -->
    <text x="40" y="15" opacity="0.5">1</text>
    <text x="40" y="30" opacity="0.9">0</text>
    <text x="40" y="45" opacity="0.7">1</text>
    <text x="40" y="60" opacity="0.4">0</text>
    <text x="40" y="75" opacity="0.8">1</text>
    <text x="40" y="90" opacity="0.6">0</text>
    <text x="40" y="105" opacity="0.3">1</text>
    <text x="40" y="120" opacity="0.7">0</text>
    <text x="40" y="135" opacity="0.5">1</text>
    <text x="40" y="150" opacity="0.9">0</text>
    <text x="40" y="165" opacity="0.6">1</text>
    <text x="40" y="180" opacity="0.4">0</text>

    <!-- Column 4 -->
    <text x="55" y="22" opacity="0.6">0</text>
    <text x="55" y="37" opacity="0.4">1</text>
    <text x="55" y="52" opacity="0.8">0</text>
    <text x="55" y="67" opacity="0.5">1</text>
    <text x="55" y="82" opacity="0.3">0</text>
    <text x="55" y="97" opacity="0.7">1</text>
    <text x="55" y="112" opacity="0.9">0</text>
    <text x="55" y="127" opacity="0.6">1</text>
    <text x="55" y="142" opacity="0.4">0</text>
    <text x="55" y="157" opacity="0.8">1</text>
    <text x="55" y="172" opacity="0.5">0</text>
    <text x="55" y="187" opacity="0.3">1</text>

    <!-- Column 5 -->
    <text x="70" y="18" opacity="0.4">1</text>
    <text x="70" y="33" opacity="0.7">0</text>
    <text x="70" y="48" opacity="0.5">1</text>
    <text x="70" y="63" opacity="0.9">0</text>
    <text x="70" y="78" opacity="0.6">1</text>
    <text x="70" y="93" opacity="0.4">0</text>
    <text x="70" y="108" opacity="0.8">1</text>
    <text x="70" y="123" opacity="0.5">0</text>
    <text x="70" y="138" opacity="0.3">1</text>
    <text x="70" y="153" opacity="0.7">0</text>
    <text x="70" y="168" opacity="0.9">1</text>
    <text x="70" y="183" opacity="0.6">0</text>

    <!-- Column 6 -->
    <text x="85" y="28" opacity="0.7">0</text>
    <text x="85" y="43" opacity="0.5">1</text>
    <text x="85" y="58" opacity="0.3">0</text>
    <text x="85" y="73" opacity="0.8">1</text>
    <text x="85" y="88" opacity="0.6">0</text>
    <text x="85" y="103" opacity="0.4">1</text>
    <text x="85" y="118" opacity="0.9">0</text>
    <text x="85" y="133" opacity="0.7">1</text>
    <text x="85" y="148" opacity="0.5">0</text>
    <text x="85" y="163" opacity="0.3">1</text>
    <text x="85" y="178" opacity="0.8">0</text>
    <text x="85" y="193" opacity="0.6">1</text>

    <!-- Column 7 -->
    <text x="100" y="12" opacity="0.5">1</text>
    <text x="100" y="27" opacity="0.8">0</text>
    <text x="100" y="42" opacity="0.6">1</text>
    <text x="100" y="57" opacity="0.4">0</text>
    <text x="100" y="72" opacity="0.9">1</text>
    <text x="100" y="87" opacity="0.7">0</text>
    <text x="100" y="102" opacity="0.5">1</text>
    <text x="100" y="117" opacity="0.3">0</text>
    <text x="100" y="132" opacity="0.8">1</text>
    <text x="100" y="147" opacity="0.6">0</text>
    <text x="100" y="162" opacity="0.4">1</text>
    <text x="100" y="177" opacity="0.9">0</text>

    <!-- Column 8 -->
    <text x="115" y="24" opacity="0.6">0</text>
    <text x="115" y="39" opacity="0.4">1</text>
    <text x="115" y="54" opacity="0.7">0</text>
    <text x="115" y="69" opacity="0.5">1</text>
    <text x="115" y="84" opacity="0.3">0</text>
    <text x="115" y="99" opacity="0.8">1</text>
    <text x="115" y="114" opacity="0.6">0</text>
    <text x="115" y="129" opacity="0.4">1</text>
    <text x="115" y="144" opacity="0.9">0</text>
    <text x="115" y="159" opacity="0.7">1</text>
    <text x="115" y="174" opacity="0.5">0</text>
    <text x="115" y="189" opacity="0.3">1</text>

    <!-- Column 9 -->
    <text x="130" y="16" opacity="0.8">1</text>
    <text x="130" y="31" opacity="0.6">0</text>
    <text x="130" y="46" opacity="0.4">1</text>
    <text x="130" y="61" opacity="0.9">0</text>
    <text x="130" y="76" opacity="0.7">1</text>
    <text x="130" y="91" opacity="0.5">0</text>
    <text x="130" y="106" opacity="0.3">1</text>
    <text x="130" y="121" opacity="0.8">0</text>
    <text x="130" y="136" opacity="0.6">1</text>
    <text x="130" y="151" opacity="0.4">0</text>
    <text x="130" y="166" opacity="0.9">1</text>
    <text x="130" y="181" opacity="0.7">0</text>

    <!-- Column 10 -->
    <text x="145" y="21" opacity="0.5">0</text>
    <text x="145" y="36" opacity="0.9">1</text>
    <text x="145" y="51" opacity="0.7">0</text>
    <text x="145" y="66" opacity="0.4">1</text>
    <text x="145" y="81" opacity="0.8">0</text>
    <text x="145" y="96" opacity="0.6">1</text>
    <text x="145" y="111" opacity="0.3">0</text>
    <text x="145" y="126" opacity="0.7">1</text>
    <text x="145" y="141" opacity="0.5">0</text>
    <text x="145" y="156" opacity="0.9">1</text>
    <text x="145" y="171" opacity="0.6">0</text>
    <text x="145" y="186" opacity="0.4">1</text>

    <!-- Column 11 -->
    <text x="160" y="19" opacity="0.7">1</text>
    <text x="160" y="34" opacity="0.5">0</text>
    <text x="160" y="49" opacity="0.3">1</text>
    <text x="160" y="64" opacity="0.8">0</text>
    <text x="160" y="79" opacity="0.6">1</text>
    <text x="160" y="94" opacity="0.4">0</text>
    <text x="160" y="109" opacity="0.9">1</text>
    <text x="160" y="124" opacity="0.7">0</text>
    <text x="160" y="139" opacity="0.5">1</text>
    <text x="160" y="154" opacity="0.3">0</text>
    <text x="160" y="169" opacity="0.8">1</text>
    <text x="160" y="184" opacity="0.6">0</text>

    <!-- Column 12 -->
    <text x="175" y="26" opacity="0.4">0</text>
    <text x="175" y="41" opacity="0.8">1</text>
    <text x="175" y="56" opacity="0.6">0</text>
    <text x="175" y="71" opacity="0.3">1</text>
    <text x="175" y="86" opacity="0.7">0</text>
    <text x="175" y="101" opacity="0.5">1</text>
    <text x="175" y="116" opacity="0.9">0</text>
    <text x="175" y="131" opacity="0.6">1</text>
    <text x="175" y="146" opacity="0.4">0</text>
    <text x="175" y="161" opacity="0.8">1</text>
    <text x="175" y="176" opacity="0.5">0</text>
    <text x="175" y="191" opacity="0.3">1</text>
  </g>
</svg>
