<svg xmlns="http://www.w3.org/2000/svg" width="400" height="400" viewBox="0 0 400 400">
  <defs>
    <radialGradient id="dotGlow" cx="50%" cy="50%" r="50%">
      <stop offset="0%" stopColor="#00ff88" stopOpacity="0.8"/>
      <stop offset="100%" stopColor="#00ff88" stopOpacity="0"/>
    </radialGradient>

    <filter id="dotsGlow">
      <feGaussianBlur stdDeviation="1" result="coloredBlur"/>
      <feMerge>
        <feMergeNode in="coloredBlur"/>
        <feMergeNode in="SourceGraphic"/>
      </feMerge>
    </filter>
  </defs>

  <!-- Background -->
  <rect width="400" height="400" fill="#0a0a0f"/>

  <!-- Matrix dots grid -->
  <g filter="url(#dotsGlow)">
    <!-- Row 1 -->
    <circle cx="20" cy="20" r="2" fill="#00ff88" opacity="0.6"/>
    <circle cx="60" cy="20" r="2" fill="#00ff88" opacity="0.4"/>
    <circle cx="100" cy="20" r="2" fill="#00ff88" opacity="0.8"/>
    <circle cx="140" cy="20" r="2" fill="#00ff88" opacity="0.5"/>
    <circle cx="180" cy="20" r="2" fill="#00ff88" opacity="0.7"/>
    <circle cx="220" cy="20" r="2" fill="#00ff88" opacity="0.4"/>
    <circle cx="260" cy="20" r="2" fill="#00ff88" opacity="0.6"/>
    <circle cx="300" cy="20" r="2" fill="#00ff88" opacity="0.8"/>
    <circle cx="340" cy="20" r="2" fill="#00ff88" opacity="0.5"/>
    <circle cx="380" cy="20" r="2" fill="#00ff88" opacity="0.7"/>

    <!-- Row 2 -->
    <circle cx="20" cy="60" r="2" fill="#00ff88" opacity="0.5"/>
    <circle cx="60" cy="60" r="2" fill="#00ff88" opacity="0.7"/>
    <circle cx="100" cy="60" r="2" fill="#00ff88" opacity="0.4"/>
    <circle cx="140" cy="60" r="2" fill="#00ff88" opacity="0.6"/>
    <circle cx="180" cy="60" r="2" fill="#00ff88" opacity="0.8"/>
    <circle cx="220" cy="60" r="2" fill="#00ff88" opacity="0.5"/>
    <circle cx="260" cy="60" r="2" fill="#00ff88" opacity="0.7"/>
    <circle cx="300" cy="60" r="2" fill="#00ff88" opacity="0.4"/>
    <circle cx="340" cy="60" r="2" fill="#00ff88" opacity="0.6"/>
    <circle cx="380" cy="60" r="2" fill="#00ff88" opacity="0.8"/>

    <!-- Row 3 -->
    <circle cx="20" cy="100" r="2" fill="#00ff88" opacity="0.7"/>
    <circle cx="60" cy="100" r="2" fill="#00ff88" opacity="0.5"/>
    <circle cx="100" cy="100" r="2" fill="#00ff88" opacity="0.8"/>
    <circle cx="140" cy="100" r="2" fill="#00ff88" opacity="0.4"/>
    <circle cx="180" cy="100" r="2" fill="#00ff88" opacity="0.6"/>
    <circle cx="220" cy="100" r="2" fill="#00ff88" opacity="0.7"/>
    <circle cx="260" cy="100" r="2" fill="#00ff88" opacity="0.5"/>
    <circle cx="300" cy="100" r="2" fill="#00ff88" opacity="0.8"/>
    <circle cx="340" cy="100" r="2" fill="#00ff88" opacity="0.4"/>
    <circle cx="380" cy="100" r="2" fill="#00ff88" opacity="0.6"/>

    <!-- Row 4 -->
    <circle cx="20" cy="140" r="2" fill="#00ff88" opacity="0.4"/>
    <circle cx="60" cy="140" r="2" fill="#00ff88" opacity="0.6"/>
    <circle cx="100" cy="140" r="2" fill="#00ff88" opacity="0.7"/>
    <circle cx="140" cy="140" r="2" fill="#00ff88" opacity="0.5"/>
    <circle cx="180" cy="140" r="2" fill="#00ff88" opacity="0.8"/>
    <circle cx="220" cy="140" r="2" fill="#00ff88" opacity="0.4"/>
    <circle cx="260" cy="140" r="2" fill="#00ff88" opacity="0.6"/>
    <circle cx="300" cy="140" r="2" fill="#00ff88" opacity="0.7"/>
    <circle cx="340" cy="140" r="2" fill="#00ff88" opacity="0.5"/>
    <circle cx="380" cy="140" r="2" fill="#00ff88" opacity="0.8"/>

    <!-- Row 5 -->
    <circle cx="20" cy="180" r="2" fill="#00ff88" opacity="0.8"/>
    <circle cx="60" cy="180" r="2" fill="#00ff88" opacity="0.4"/>
    <circle cx="100" cy="180" r="2" fill="#00ff88" opacity="0.6"/>
    <circle cx="140" cy="180" r="2" fill="#00ff88" opacity="0.7"/>
    <circle cx="180" cy="180" r="2" fill="#00ff88" opacity="0.5"/>
    <circle cx="220" cy="180" r="2" fill="#00ff88" opacity="0.8"/>
    <circle cx="260" cy="180" r="2" fill="#00ff88" opacity="0.4"/>
    <circle cx="300" cy="180" r="2" fill="#00ff88" opacity="0.6"/>
    <circle cx="340" cy="180" r="2" fill="#00ff88" opacity="0.7"/>
    <circle cx="380" cy="180" r="2" fill="#00ff88" opacity="0.5"/>

    <!-- Row 6 -->
    <circle cx="20" cy="220" r="2" fill="#00ff88" opacity="0.5"/>
    <circle cx="60" cy="220" r="2" fill="#00ff88" opacity="0.7"/>
    <circle cx="100" cy="220" r="2" fill="#00ff88" opacity="0.4"/>
    <circle cx="140" cy="220" r="2" fill="#00ff88" opacity="0.6"/>
    <circle cx="180" cy="220" r="2" fill="#00ff88" opacity="0.8"/>
    <circle cx="220" cy="220" r="2" fill="#00ff88" opacity="0.5"/>
    <circle cx="260" cy="220" r="2" fill="#00ff88" opacity="0.7"/>
    <circle cx="300" cy="220" r="2" fill="#00ff88" opacity="0.4"/>
    <circle cx="340" cy="220" r="2" fill="#00ff88" opacity="0.6"/>
    <circle cx="380" cy="220" r="2" fill="#00ff88" opacity="0.8"/>

    <!-- Row 7 -->
    <circle cx="20" cy="260" r="2" fill="#00ff88" opacity="0.6"/>
    <circle cx="60" cy="260" r="2" fill="#00ff88" opacity="0.4"/>
    <circle cx="100" cy="260" r="2" fill="#00ff88" opacity="0.8"/>
    <circle cx="140" cy="260" r="2" fill="#00ff88" opacity="0.5"/>
    <circle cx="180" cy="260" r="2" fill="#00ff88" opacity="0.7"/>
    <circle cx="220" cy="260" r="2" fill="#00ff88" opacity="0.4"/>
    <circle cx="260" cy="260" r="2" fill="#00ff88" opacity="0.6"/>
    <circle cx="300" cy="260" r="2" fill="#00ff88" opacity="0.8"/>
    <circle cx="340" cy="260" r="2" fill="#00ff88" opacity="0.5"/>
    <circle cx="380" cy="260" r="2" fill="#00ff88" opacity="0.7"/>

    <!-- Row 8 -->
    <circle cx="20" cy="300" r="2" fill="#00ff88" opacity="0.7"/>
    <circle cx="60" cy="300" r="2" fill="#00ff88" opacity="0.5"/>
    <circle cx="100" cy="300" r="2" fill="#00ff88" opacity="0.4"/>
    <circle cx="140" cy="300" r="2" fill="#00ff88" opacity="0.6"/>
    <circle cx="180" cy="300" r="2" fill="#00ff88" opacity="0.8"/>
    <circle cx="220" cy="300" r="2" fill="#00ff88" opacity="0.7"/>
    <circle cx="260" cy="300" r="2" fill="#00ff88" opacity="0.5"/>
    <circle cx="300" cy="300" r="2" fill="#00ff88" opacity="0.4"/>
    <circle cx="340" cy="300" r="2" fill="#00ff88" opacity="0.6"/>
    <circle cx="380" cy="300" r="2" fill="#00ff88" opacity="0.8"/>

    <!-- Row 9 -->
    <circle cx="20" cy="340" r="2" fill="#00ff88" opacity="0.4"/>
    <circle cx="60" cy="340" r="2" fill="#00ff88" opacity="0.6"/>
    <circle cx="100" cy="340" r="2" fill="#00ff88" opacity="0.7"/>
    <circle cx="140" cy="340" r="2" fill="#00ff88" opacity="0.5"/>
    <circle cx="180" cy="340" r="2" fill="#00ff88" opacity="0.8"/>
    <circle cx="220" cy="340" r="2" fill="#00ff88" opacity="0.4"/>
    <circle cx="260" cy="340" r="2" fill="#00ff88" opacity="0.6"/>
    <circle cx="300" cy="340" r="2" fill="#00ff88" opacity="0.7"/>
    <circle cx="340" cy="340" r="2" fill="#00ff88" opacity="0.5"/>
    <circle cx="380" cy="340" r="2" fill="#00ff88" opacity="0.8"/>

    <!-- Row 10 -->
    <circle cx="20" cy="380" r="2" fill="#00ff88" opacity="0.8"/>
    <circle cx="60" cy="380" r="2" fill="#00ff88" opacity="0.5"/>
    <circle cx="100" cy="380" r="2" fill="#00ff88" opacity="0.6"/>
    <circle cx="140" cy="380" r="2" fill="#00ff88" opacity="0.4"/>
    <circle cx="180" cy="380" r="2" fill="#00ff88" opacity="0.7"/>
    <circle cx="220" cy="380" r="2" fill="#00ff88" opacity="0.8"/>
    <circle cx="260" cy="380" r="2" fill="#00ff88" opacity="0.5"/>
    <circle cx="300" cy="380" r="2" fill="#00ff88" opacity="0.6"/>
    <circle cx="340" cy="380" r="2" fill="#00ff88" opacity="0.4"/>
    <circle cx="380" cy="380" r="2" fill="#00ff88" opacity="0.7"/>
  </g>

  <!-- Accent dots with cyan -->
  <g opacity="0.6">
    <circle cx="100" cy="20" r="3" fill="#00f0ff"/>
    <circle cx="300" cy="60" r="3" fill="#00f0ff"/>
    <circle cx="180" cy="140" r="3" fill="#00f0ff"/>
    <circle cx="380" cy="180" r="3" fill="#00f0ff"/>
    <circle cx="60" cy="260" r="3" fill="#00f0ff"/>
    <circle cx="260" cy="300" r="3" fill="#00f0ff"/>
    <circle cx="140" cy="380" r="3" fill="#00f0ff"/>
  </g>
</svg>
