<svg xmlns="http://www.w3.org/2000/svg" width="200" height="200" viewBox="0 0 200 200">
  <defs>
    <pattern id="particles" x="0" y="0" width="200" height="200" patternUnits="userSpaceOnUse">
      <g opacity="0.4">
        <!-- 大粒子 -->
        <circle cx="20" cy="30" r="2" fill="#00f0ff" opacity="0.6" />
        <circle cx="80" cy="15" r="2" fill="#9d00ff" opacity="0.5" />
        <circle cx="150" cy="40" r="2" fill="#00f0ff" opacity="0.6" />
        <circle cx="180" cy="80" r="2" fill="#ff0080" opacity="0.5" />
        <circle cx="25" cy="120" r="2" fill="#00f0ff" opacity="0.6" />
        <circle cx="100" cy="100" r="2" fill="#f0ff00" opacity="0.5" />
        <circle cx="170" cy="150" r="2" fill="#9d00ff" opacity="0.6" />
        <circle cx="50" cy="180" r="2" fill="#00f0ff" opacity="0.5" />
        <circle cx="130" cy="170" r="2" fill="#ff0080" opacity="0.6" />

        <!-- 中粒子 -->
        <circle cx="40" cy="10" r="1.5" fill="#00f0ff" opacity="0.4" />
        <circle cx="120" cy="25" r="1.5" fill="#9d00ff" opacity="0.4" />
        <circle cx="190" cy="55" r="1.5" fill="#00f0ff" opacity="0.4" />
        <circle cx="10" cy="90" r="1.5" fill="#ff0080" opacity="0.4" />
        <circle cx="90" cy="70" r="1.5" fill="#f0ff00" opacity="0.4" />
        <circle cx="160" cy="110" r="1.5" fill="#00f0ff" opacity="0.4" />
        <circle cx="30" cy="150" r="1.5" fill="#9d00ff" opacity="0.4" />
        <circle cx="110" cy="140" r="1.5" fill="#00f0ff" opacity="0.4" />
        <circle cx="185" cy="185" r="1.5" fill="#ff0080" opacity="0.4" />
        <circle cx="70" cy="195" r="1.5" fill="#f0ff00" opacity="0.4" />

        <!-- 小粒子 -->
        <circle cx="55" cy="5" r="1" fill="#00f0ff" opacity="0.3" />
        <circle cx="105" cy="20" r="1" fill="#9d00ff" opacity="0.3" />
        <circle cx="165" cy="30" r="1" fill="#ff0080" opacity="0.3" />
        <circle cx="195" cy="70" r="1" fill="#00f0ff" opacity="0.3" />
        <circle cx="15" cy="105" r="1" fill="#f0ff00" opacity="0.3" />
        <circle cx="75" cy="85" r="1" fill="#9d00ff" opacity="0.3" />
        <circle cx="145" cy="95" r="1" fill="#00f0ff" opacity="0.3" />
        <circle cx="5" cy="135" r="1" fill="#ff0080" opacity="0.3" />
        <circle cx="115" cy="125" r="1" fill="#f0ff00" opacity="0.3" />
        <circle cx="175" cy="175" r="1" fill="#9d00ff" opacity="0.3" />
        <circle cx="45" cy="165" r="1" fill="#00f0ff" opacity="0.3" />
        <circle cx="95" cy="185" r="1" fill="#ff0080" opacity="0.3" />
        <circle cx="155" cy="195" r="1" fill="#f0ff00" opacity="0.3" />

        <!-- 微小粒子 -->
        <circle cx="30" cy="45" r="0.5" fill="#00f0ff" opacity="0.2" />
        <circle cx="70" cy="35" r="0.5" fill="#9d00ff" opacity="0.2" />
        <circle cx="130" cy="50" r="0.5" fill="#ff0080" opacity="0.2" />
        <circle cx="170" cy="20" r="0.5" fill="#00f0ff" opacity="0.2" />
        <circle cx="20" cy="75" r="0.5" fill="#f0ff00" opacity="0.2" />
        <circle cx="60" cy="65" r="0.5" fill="#9d00ff" opacity="0.2" />
        <circle cx="140" cy="75" r="0.5" fill="#00f0ff" opacity="0.2" />
        <circle cx="190" cy="95" r="0.5" fill="#ff0080" opacity="0.2" />
        <circle cx="10" cy="115" r="0.5" fill="#f0ff00" opacity="0.2" />
        <circle cx="80" cy="105" r="0.5" fill="#9d00ff" opacity="0.2" />
        <circle cx="120" cy="115" r="0.5" fill="#00f0ff" opacity="0.2" />
        <circle cx="180" cy="125" r="0.5" fill="#ff0080" opacity="0.2" />
        <circle cx="35" cy="155" r="0.5" fill="#f0ff00" opacity="0.2" />
        <circle cx="85" cy="145" r="0.5" fill="#9d00ff" opacity="0.2" />
        <circle cx="155" cy="155" r="0.5" fill="#00f0ff" opacity="0.2" />
        <circle cx="195" cy="165" r="0.5" fill="#ff0080" opacity="0.2" />
        <circle cx="25" cy="195" r="0.5" fill="#f0ff00" opacity="0.2" />
        <circle cx="105" cy="175" r="0.5" fill="#9d00ff" opacity="0.2" />
        <circle cx="145" cy="185" r="0.5" fill="#00f0ff" opacity="0.2" />
        <circle cx="185" cy="145" r="0.5" fill="#ff0080" opacity="0.2" />
      </g>
    </pattern>
  </defs>

  <!-- 背景应用 -->
  <rect width="100%" height="100%" fill="url(#particles)" />
</svg>
