<svg xmlns="http://www.w3.org/2000/svg" style="display: none;">
  <defs>
    <linearGradient id="icon-cyan-gradient" x1="0%" y1="0%" x2="100%" y2="100%">
      <stop offset="0%" style="stop-color:#00f0ff;stop-opacity:1" />
      <stop offset="100%" style="stop-color:#00a0aa;stop-opacity:1" />
    </linearGradient>
  </defs>

  <!-- Navigation Icons -->
  <symbol id="icon-home" viewBox="0 0 24 24">
    <path d="M3 9l9-7 9 7v11a2 2 0 0 1-2 2H5a2 2 0 0 1-2-2z" fill="none" stroke="url(#icon-cyan-gradient)" stroke-width="2"/>
    <polyline points="9 22 9 12 15 12 15 22" fill="none" stroke="url(#icon-cyan-gradient)" stroke-width="2"/>
  </symbol>

  <symbol id="icon-grid" viewBox="0 0 24 24">
    <rect x="3" y="3" width="7" height="7" fill="none" stroke="url(#icon-cyan-gradient)" stroke-width="2"/>
    <rect x="14" y="3" width="7" height="7" fill="none" stroke="url(#icon-cyan-gradient)" stroke-width="2"/>
    <rect x="14" y="14" width="7" height="7" fill="none" stroke="url(#icon-cyan-gradient)" stroke-width="2"/>
    <rect x="3" y="14" width="7" height="7" fill="none" stroke="url(#icon-cyan-gradient)" stroke-width="2"/>
  </symbol>

  <symbol id="icon-list" viewBox="0 0 24 24">
    <line x1="8" y1="6" x2="21" y2="6" stroke="url(#icon-cyan-gradient)" stroke-width="2"/>
    <line x1="8" y1="12" x2="21" y2="12" stroke="url(#icon-cyan-gradient)" stroke-width="2"/>
    <line x1="8" y1="18" x2="21" y2="18" stroke="url(#icon-cyan-gradient)" stroke-width="2"/>
    <line x1="3" y1="6" x2="3.01" y2="6" stroke="url(#icon-cyan-gradient)" stroke-width="2"/>
    <line x1="3" y1="12" x2="3.01" y2="12" stroke="url(#icon-cyan-gradient)" stroke-width="2"/>
    <line x1="3" y1="18" x2="3.01" y2="18" stroke="url(#icon-cyan-gradient)" stroke-width="2"/>
  </symbol>

  <!-- Action Icons -->
  <symbol id="icon-edit" viewBox="0 0 24 24">
    <path d="M11 4H4a2 2 0 0 0-2 2v14a2 2 0 0 0 2 2h14a2 2 0 0 0 2-2v-7" fill="none" stroke="url(#icon-cyan-gradient)" stroke-width="2"/>
    <path d="M18.5 2.5a2.121 2.121 0 0 1 3 3L12 15l-4 1 1-4 9.5-9.5z" fill="none" stroke="url(#icon-cyan-gradient)" stroke-width="2"/>
  </symbol>

  <symbol id="icon-delete" viewBox="0 0 24 24">
    <polyline points="3 6 5 6 21 6" fill="none" stroke="url(#icon-cyan-gradient)" stroke-width="2"/>
    <path d="M19 6v14a2 2 0 0 1-2 2H7a2 2 0 0 1-2-2V6m3 0V4a2 2 0 0 1 2-2h4a2 2 0 0 1 2 2v2" fill="none" stroke="url(#icon-cyan-gradient)" stroke-width="2"/>
    <line x1="10" y1="11" x2="10" y2="17" stroke="url(#icon-cyan-gradient)" stroke-width="2"/>
    <line x1="14" y1="11" x2="14" y2="17" stroke="url(#icon-cyan-gradient)" stroke-width="2"/>
  </symbol>

  <symbol id="icon-download" viewBox="0 0 24 24">
    <path d="M21 15v4a2 2 0 0 1-2 2H5a2 2 0 0 1-2-2v-4" fill="none" stroke="url(#icon-cyan-gradient)" stroke-width="2"/>
    <polyline points="7 10 12 15 17 10" fill="none" stroke="url(#icon-cyan-gradient)" stroke-width="2"/>
    <line x1="12" y1="15" x2="12" y2="3" stroke="url(#icon-cyan-gradient)" stroke-width="2"/>
  </symbol>

  <symbol id="icon-upload" viewBox="0 0 24 24">
    <path d="M21 15v4a2 2 0 0 1-2 2H5a2 2 0 0 1-2-2v-4" fill="none" stroke="url(#icon-cyan-gradient)" stroke-width="2"/>
    <polyline points="17 8 12 3 7 8" fill="none" stroke="url(#icon-cyan-gradient)" stroke-width="2"/>
    <line x1="12" y1="3" x2="12" y2="15" stroke="url(#icon-cyan-gradient)" stroke-width="2"/>
  </symbol>

  <!-- Status Icons -->
  <symbol id="icon-success" viewBox="0 0 24 24">
    <path d="M22 11.08V12a10 10 0 1 1-5.93-9.14" fill="none" stroke="url(#icon-cyan-gradient)" stroke-width="2"/>
    <polyline points="22 4 12 14.01 9 11.01" fill="none" stroke="url(#icon-cyan-gradient)" stroke-width="2"/>
  </symbol>

  <symbol id="icon-warning" viewBox="0 0 24 24">
    <path d="M10.29 3.86L1.82 18a2 2 0 0 0 1.71 3h16.94a2 2 0 0 0 1.71-3L13.71 3.86a2 2 0 0 0-3.42 0z" fill="none" stroke="url(#icon-cyan-gradient)" stroke-width="2"/>
    <line x1="12" y1="9" x2="12" y2="13" stroke="url(#icon-cyan-gradient)" stroke-width="2"/>
    <line x1="12" y1="17" x2="12.01" y2="17" stroke="url(#icon-cyan-gradient)" stroke-width="2"/>
  </symbol>

  <symbol id="icon-info" viewBox="0 0 24 24">
    <circle cx="12" cy="12" r="10" fill="none" stroke="url(#icon-cyan-gradient)" stroke-width="2"/>
    <line x1="12" y1="16" x2="12" y2="12" stroke="url(#icon-cyan-gradient)" stroke-width="2"/>
    <line x1="12" y1="8" x2="12.01" y2="8" stroke="url(#icon-cyan-gradient)" stroke-width="2"/>
  </symbol>

  <!-- Media Icons -->
  <symbol id="icon-image" viewBox="0 0 24 24">
    <rect x="3" y="3" width="18" height="18" rx="2" ry="2" fill="none" stroke="url(#icon-cyan-gradient)" stroke-width="2"/>
    <circle cx="8.5" cy="8.5" r="1.5" fill="url(#icon-cyan-gradient)"/>
    <polyline points="21 15 16 10 5 21" fill="none" stroke="url(#icon-cyan-gradient)" stroke-width="2"/>
  </symbol>

  <symbol id="icon-video" viewBox="0 0 24 24">
    <polygon points="23 7 16 12 23 17 23 7" fill="url(#icon-cyan-gradient)"/>
    <rect x="1" y="5" width="15" height="14" rx="2" ry="2" fill="none" stroke="url(#icon-cyan-gradient)" stroke-width="2"/>
  </symbol>

  <symbol id="icon-music" viewBox="0 0 24 24">
    <path d="M9 18V5l12-2v13" fill="none" stroke="url(#icon-cyan-gradient)" stroke-width="2"/>
    <circle cx="6" cy="18" r="3" fill="none" stroke="url(#icon-cyan-gradient)" stroke-width="2"/>
    <circle cx="18" cy="16" r="3" fill="none" stroke="url(#icon-cyan-gradient)" stroke-width="2"/>
  </symbol>

  <!-- Social Icons -->
  <symbol id="icon-email" viewBox="0 0 24 24">
    <path d="M4 4h16c1.1 0 2 .9 2 2v12c0 1.1-.9 2-2 2H4c-1.1 0-2-.9-2-2V6c0-1.1.9-2 2-2z" fill="none" stroke="url(#icon-cyan-gradient)" stroke-width="2"/>
    <polyline points="22,6 12,13 2,6" fill="none" stroke="url(#icon-cyan-gradient)" stroke-width="2"/>
  </symbol>

  <symbol id="icon-rss" viewBox="0 0 24 24">
    <path d="M4 11a9 9 0 0 1 9 9" fill="none" stroke="url(#icon-cyan-gradient)" stroke-width="2"/>
    <path d="M4 4a16 16 0 0 1 16 16" fill="none" stroke="url(#icon-cyan-gradient)" stroke-width="2"/>
    <circle cx="5" cy="19" r="1" fill="url(#icon-cyan-gradient)"/>
  </symbol>

  <!-- Utility Icons -->
  <symbol id="icon-clock" viewBox="0 0 24 24">
    <circle cx="12" cy="12" r="10" fill="none" stroke="url(#icon-cyan-gradient)" stroke-width="2"/>
    <polyline points="12 6 12 12 16 14" fill="none" stroke="url(#icon-cyan-gradient)" stroke-width="2"/>
  </symbol>

  <symbol id="icon-folder" viewBox="0 0 24 24">
    <path d="M22 19a2 2 0 0 1-2 2H4a2 2 0 0 1-2-2V5a2 2 0 0 1 2-2h5l2 3h9a2 2 0 0 1 2 2z" fill="none" stroke="url(#icon-cyan-gradient)" stroke-width="2"/>
  </symbol>

  <symbol id="icon-archive" viewBox="0 0 24 24">
    <polyline points="21 8 21 21 3 21 3 8" fill="none" stroke="url(#icon-cyan-gradient)" stroke-width="2"/>
    <rect x="1" y="3" width="22" height="5" fill="none" stroke="url(#icon-cyan-gradient)" stroke-width="2"/>
    <line x1="10" y1="12" x2="14" y2="12" stroke="url(#icon-cyan-gradient)" stroke-width="2"/>
  </symbol>

  <!-- Tech Icons -->
  <symbol id="icon-terminal" viewBox="0 0 24 24">
    <polyline points="4 17 10 11 4 5" fill="none" stroke="url(#icon-cyan-gradient)" stroke-width="2"/>
    <line x1="12" y1="19" x2="20" y2="19" stroke="url(#icon-cyan-gradient)" stroke-width="2"/>
  </symbol>

  <symbol id="icon-database" viewBox="0 0 24 24">
    <ellipse cx="12" cy="5" rx="9" ry="3" fill="none" stroke="url(#icon-cyan-gradient)" stroke-width="2"/>
    <path d="M21 12c0 1.66-4 3-9 3s-9-1.34-9-3" fill="none" stroke="url(#icon-cyan-gradient)" stroke-width="2"/>
    <path d="M3 5v14c0 1.66 4 3 9 3s9-1.34 9-3V5" fill="none" stroke="url(#icon-cyan-gradient)" stroke-width="2"/>
  </symbol>

  <symbol id="icon-server" viewBox="0 0 24 24">
    <rect x="2" y="2" width="20" height="8" rx="2" ry="2" fill="none" stroke="url(#icon-cyan-gradient)" stroke-width="2"/>
    <rect x="2" y="14" width="20" height="8" rx="2" ry="2" fill="none" stroke="url(#icon-cyan-gradient)" stroke-width="2"/>
    <line x1="6" y1="6" x2="6.01" y2="6" stroke="url(#icon-cyan-gradient)" stroke-width="2"/>
    <line x1="6" y1="18" x2="6.01" y2="18" stroke="url(#icon-cyan-gradient)" stroke-width="2"/>
  </symbol>

  <!-- Chart Icons -->
  <symbol id="icon-bar-chart" viewBox="0 0 24 24">
    <line x1="18" y1="20" x2="18" y2="10" fill="none" stroke="url(#icon-cyan-gradient)" stroke-width="2"/>
    <line x1="12" y1="20" x2="12" y2="4" fill="none" stroke="url(#icon-cyan-gradient)" stroke-width="2"/>
    <line x1="6" y1="20" x2="6" y2="14" fill="none" stroke="url(#icon-cyan-gradient)" stroke-width="2"/>
  </symbol>

  <symbol id="icon-line-chart" viewBox="0 0 24 24">
    <polyline points="22 12 18 12 15 21 9 3 6 12 2 12" fill="none" stroke="url(#icon-cyan-gradient)" stroke-width="2"/>
  </symbol>

  <symbol id="icon-pie-chart" viewBox="0 0 24 24">
    <path d="M21.21 15.89A10 10 0 1 1 8 2.83" fill="none" stroke="url(#icon-cyan-gradient)" stroke-width="2"/>
    <path d="M22 12A10 10 0 0 0 12 2v10z" fill="url(#icon-cyan-gradient)"/>
  </symbol>

  <!-- File Icons -->
  <symbol id="icon-file" viewBox="0 0 24 24">
    <path d="M14 2H6a2 2 0 0 0-2 2v16a2 2 0 0 0 2 2h12a2 2 0 0 0 2-2V8z" fill="none" stroke="url(#icon-cyan-gradient)" stroke-width="2"/>
    <polyline points="14 2 14 8 20 8" fill="none" stroke="url(#icon-cyan-gradient)" stroke-width="2"/>
  </symbol>

  <symbol id="icon-file-code" viewBox="0 0 24 24">
    <path d="M14.5 2H6a2 2 0 0 0-2 2v16a2 2 0 0 0 2 2h12a2 2 0 0 0 2-2V7.5L14.5 2z" fill="none" stroke="url(#icon-cyan-gradient)" stroke-width="2"/>
    <polyline points="14 2 14 8 20 8" fill="none" stroke="url(#icon-cyan-gradient)" stroke-width="2"/>
    <polyline points="10 13 8 15 10 17" fill="none" stroke="url(#icon-cyan-gradient)" stroke-width="2"/>
    <polyline points="14 13 16 15 14 17" fill="none" stroke="url(#icon-cyan-gradient)" stroke-width="2"/>
  </symbol>

  <symbol id="icon-file-text" viewBox="0 0 24 24">
    <path d="M14 2H6a2 2 0 0 0-2 2v16a2 2 0 0 0 2 2h12a2 2 0 0 0 2-2V8z" fill="none" stroke="url(#icon-cyan-gradient)" stroke-width="2"/>
    <polyline points="14 2 14 8 20 8" fill="none" stroke="url(#icon-cyan-gradient)" stroke-width="2"/>
    <line x1="16" y1="13" x2="8" y2="13" stroke="url(#icon-cyan-gradient)" stroke-width="2"/>
    <line x1="16" y1="17" x2="8" y2="17" stroke="url(#icon-cyan-gradient)" stroke-width="2"/>
    <line x1="10" y1="9" x2="8" y2="9" stroke="url(#icon-cyan-gradient)" stroke-width="2"/>
  </symbol>

  <!-- Toggle Icons -->
  <symbol id="icon-eye" viewBox="0 0 24 24">
    <path d="M1 12s4-8 11-8 11 8 11 8-4 8-11 8-11-8-11-8z" fill="none" stroke="url(#icon-cyan-gradient)" stroke-width="2"/>
    <circle cx="12" cy="12" r="3" fill="none" stroke="url(#icon-cyan-gradient)" stroke-width="2"/>
  </symbol>

  <symbol id="icon-eye-off" viewBox="0 0 24 24">
    <path d="M17.94 17.94A10.07 10.07 0 0 1 12 20c-7 0-11-8-11-8a18.45 18.45 0 0 1 5.06-5.94M9.9 4.24A9.12 9.12 0 0 1 12 4c7 0 11 8 11 8a18.5 18.5 0 0 1-2.16 3.19m-6.72-1.07a3 3 0 1 1-4.24-4.24" fill="none" stroke="url(#icon-cyan-gradient)" stroke-width="2"/>
    <line x1="1" y1="1" x2="23" y2="23" stroke="url(#icon-cyan-gradient)" stroke-width="2"/>
  </symbol>

  <symbol id="icon-lock" viewBox="0 0 24 24">
    <rect x="3" y="11" width="18" height="11" rx="2" ry="2" fill="none" stroke="url(#icon-cyan-gradient)" stroke-width="2"/>
    <path d="M7 11V7a5 5 0 0 1 10 0v4" fill="none" stroke="url(#icon-cyan-gradient)" stroke-width="2"/>
  </symbol>

  <symbol id="icon-unlock" viewBox="0 0 24 24">
    <rect x="3" y="11" width="18" height="11" rx="2" ry="2" fill="none" stroke="url(#icon-cyan-gradient)" stroke-width="2"/>
    <path d="M7 11V7a5 5 0 0 1 9.9-1" fill="none" stroke="url(#icon-cyan-gradient)" stroke-width="2"/>
  </symbol>
</svg>
